<mxfile host="app.diagrams.net" modified="2021-11-12T06:07:38.252Z" agent="5.0 (Macintosh; Intel Mac OS X 10_15_7) AppleWebKit/537.36 (KHTML, like Gecko) Chrome/95.0.4638.69 Safari/537.36" etag="bVmr8xZmdzn-vwI2IQFI" version="15.7.3" type="github">
  <diagram id="qy61lQWOyMGtO83Mc_vi" name="Page-1">
    <mxGraphModel dx="2066" dy="1154" grid="1" gridSize="10" guides="1" tooltips="1" connect="1" arrows="1" fold="1" page="1" pageScale="1" pageWidth="827" pageHeight="1169" math="0" shadow="0">
      <root>
        <mxCell id="0" />
        <mxCell id="1" parent="0" />
        <mxCell id="v9QwSSbJvVPzTVxQufjs-1" value="Browser" style="shape=umlLifeline;perimeter=lifelinePerimeter;whiteSpace=wrap;html=1;container=1;collapsible=0;recursiveResize=0;outlineConnect=0;shadow=0;sketch=1;" vertex="1" parent="1">
          <mxGeometry x="50" y="130" width="70" height="580" as="geometry" />
        </mxCell>
        <mxCell id="v9QwSSbJvVPzTVxQufjs-5" value="访问" style="html=1;verticalAlign=bottom;startArrow=oval;startFill=1;endArrow=block;startSize=8;rounded=0;shadow=0;sketch=1;" edge="1" parent="v9QwSSbJvVPzTVxQufjs-1" target="v9QwSSbJvVPzTVxQufjs-2">
          <mxGeometry width="60" relative="1" as="geometry">
            <mxPoint x="40" y="80" as="sourcePoint" />
            <mxPoint x="100" y="80" as="targetPoint" />
          </mxGeometry>
        </mxCell>
        <mxCell id="v9QwSSbJvVPzTVxQufjs-2" value="System A" style="shape=umlLifeline;perimeter=lifelinePerimeter;whiteSpace=wrap;html=1;container=1;collapsible=0;recursiveResize=0;outlineConnect=0;shadow=0;sketch=1;" vertex="1" parent="1">
          <mxGeometry x="220" y="130" width="70" height="580" as="geometry" />
        </mxCell>
        <mxCell id="v9QwSSbJvVPzTVxQufjs-6" value="" style="html=1;points=[];perimeter=orthogonalPerimeter;shadow=0;" vertex="1" parent="v9QwSSbJvVPzTVxQufjs-2">
          <mxGeometry x="30" y="130" width="10" height="40" as="geometry" />
        </mxCell>
        <mxCell id="v9QwSSbJvVPzTVxQufjs-7" value="无局部回话&lt;br&gt;验证未登录" style="edgeStyle=orthogonalEdgeStyle;html=1;align=left;spacingLeft=2;endArrow=block;rounded=0;entryX=1;entryY=0;shadow=0;sketch=1;" edge="1" target="v9QwSSbJvVPzTVxQufjs-6" parent="v9QwSSbJvVPzTVxQufjs-2">
          <mxGeometry relative="1" as="geometry">
            <mxPoint x="35" y="110" as="sourcePoint" />
            <Array as="points">
              <mxPoint x="80" y="110" />
              <mxPoint x="80" y="130" />
            </Array>
          </mxGeometry>
        </mxCell>
        <mxCell id="v9QwSSbJvVPzTVxQufjs-3" value="账号中台" style="shape=umlLifeline;perimeter=lifelinePerimeter;whiteSpace=wrap;html=1;container=1;collapsible=0;recursiveResize=0;outlineConnect=0;shadow=0;sketch=1;" vertex="1" parent="1">
          <mxGeometry x="379" y="130" width="70" height="580" as="geometry" />
        </mxCell>
        <mxCell id="v9QwSSbJvVPzTVxQufjs-13" value="" style="html=1;points=[];perimeter=orthogonalPerimeter;shadow=0;" vertex="1" parent="v9QwSSbJvVPzTVxQufjs-3">
          <mxGeometry x="30" y="240" width="10" height="40" as="geometry" />
        </mxCell>
        <mxCell id="v9QwSSbJvVPzTVxQufjs-14" value="验证有无全局回话" style="edgeStyle=orthogonalEdgeStyle;html=1;align=left;spacingLeft=2;endArrow=block;rounded=0;entryX=1;entryY=0;shadow=0;sketch=1;" edge="1" target="v9QwSSbJvVPzTVxQufjs-13" parent="v9QwSSbJvVPzTVxQufjs-3">
          <mxGeometry relative="1" as="geometry">
            <mxPoint x="35" y="220" as="sourcePoint" />
            <Array as="points">
              <mxPoint x="60" y="220" />
            </Array>
          </mxGeometry>
        </mxCell>
        <mxCell id="v9QwSSbJvVPzTVxQufjs-4" value="System B" style="shape=umlLifeline;perimeter=lifelinePerimeter;whiteSpace=wrap;html=1;container=1;collapsible=0;recursiveResize=0;outlineConnect=0;shadow=0;sketch=1;" vertex="1" parent="1">
          <mxGeometry x="560" y="130" width="70" height="580" as="geometry" />
        </mxCell>
        <mxCell id="v9QwSSbJvVPzTVxQufjs-8" value="跳转（A系统地址）" style="html=1;verticalAlign=bottom;startArrow=oval;startFill=1;endArrow=block;startSize=8;rounded=0;shadow=0;sketch=1;" edge="1" parent="1" source="v9QwSSbJvVPzTVxQufjs-2" target="v9QwSSbJvVPzTVxQufjs-3">
          <mxGeometry width="60" relative="1" as="geometry">
            <mxPoint x="260" y="320" as="sourcePoint" />
            <mxPoint x="320" y="320" as="targetPoint" />
            <Array as="points">
              <mxPoint x="300" y="340" />
            </Array>
          </mxGeometry>
        </mxCell>
        <mxCell id="v9QwSSbJvVPzTVxQufjs-16" value="跳转指定登录页面" style="html=1;verticalAlign=bottom;endArrow=open;dashed=1;endSize=8;rounded=0;shadow=0;sketch=1;" edge="1" parent="1" source="v9QwSSbJvVPzTVxQufjs-3" target="v9QwSSbJvVPzTVxQufjs-1">
          <mxGeometry x="0.541" y="-10" relative="1" as="geometry">
            <mxPoint x="170" y="440" as="sourcePoint" />
            <mxPoint x="90" y="440" as="targetPoint" />
            <mxPoint as="offset" />
          </mxGeometry>
        </mxCell>
      </root>
    </mxGraphModel>
  </diagram>
</mxfile>
